<?xml version="1.0" encoding="UTF-8"?>
<svg width="22px" height="22px" viewBox="0 0 22 22" version="1.1" xmlns="http://www.w3.org/2000/svg" xmlns:xlink="http://www.w3.org/1999/xlink">
    <!-- Generator: Sketch 42 (36781) - http://www.bohemiancoding.com/sketch -->
    <title>Facebook</title>
    <desc>Created with Sketch.</desc>
    <defs></defs>
    <g id="Page-1" stroke="none" stroke-width="1" fill="none" fill-rule="evenodd">
        <g id="Facebook" transform="translate(1.000000, 1.000000)">
            <path d="M20,19 L20,1 C20,0.448 19.552,0 19,0 L1,0 C0.448,0 0,0.448 0,1 L0,19 C0,19.552 0.448,20 1,20 L19,20 C19.552,20 20,19.552 20,19 Z" id="Blue_1_" stroke="#FFFFFF" stroke-width="2"></path>
            <path d="M13.8,20 L13.8,12.255 L16.4,12.255 L16.789,9.237 L13.8,9.237 L13.8,7.31 C13.8,6.436 14.043,5.841 15.296,5.841 L16.894,5.84 L16.894,3.14 C16.617,3.103 15.669,3.021 14.565,3.021 C12.261,3.021 10.683,4.428 10.683,7.011 L10.683,9.237 L8.077,9.237 L8.077,12.255 L10.683,12.255 L10.683,20 L13.8,20 Z" id="f" fill="#FFFFFF" fill-rule="nonzero"></path>
        </g>
    </g>
</svg>