<?xml version="1.0" encoding="UTF-8"?>
<svg width="24px" height="24px" viewBox="0 0 24 24" version="1.1" xmlns="http://www.w3.org/2000/svg" xmlns:xlink="http://www.w3.org/1999/xlink">
    <!-- Generator: Sketch 42 (36781) - http://www.bohemiancoding.com/sketch -->
    <title>Shape</title>
    <desc>Created with Sketch.</desc>
    <defs></defs>
    <g id="Page-1" stroke="none" stroke-width="1" fill="none" fill-rule="evenodd">
        <g id="GitHub" fill-rule="nonzero" fill="#FFFFFF">
            <path d="M11.999,0 C5.373,0 0,5.373 0,12.001 C0,17.302 3.438,21.8 8.207,23.387 C8.807,23.497 9.026,23.127 9.026,22.809 C9.026,22.524 9.016,21.769 9.01,20.768 C5.672,21.493 4.968,19.159 4.968,19.159 C4.422,17.773 3.636,17.404 3.636,17.404 C2.546,16.659 3.718,16.675 3.718,16.675 C4.922,16.76 5.556,17.912 5.556,17.912 C6.626,19.746 8.365,19.216 9.048,18.909 C9.157,18.134 9.467,17.605 9.81,17.305 C7.145,17.002 4.344,15.973 4.344,11.374 C4.344,10.064 4.812,8.993 5.579,8.154 C5.456,7.85 5.044,6.63 5.697,4.978 C5.697,4.978 6.705,4.655 8.997,6.208 C9.954,5.942 10.981,5.809 12.001,5.804 C13.02,5.809 14.047,5.942 15.005,6.208 C17.296,4.655 18.302,4.978 18.302,4.978 C18.957,6.63 18.545,7.85 18.421,8.154 C19.19,8.993 19.654,10.064 19.654,11.374 C19.654,15.984 16.848,16.998 14.175,17.295 C14.606,17.665 14.99,18.398 14.99,19.517 C14.99,21.121 14.975,22.415 14.975,22.809 C14.975,23.13 15.191,23.503 15.8,23.386 C20.565,21.795 24,17.301 24,12.001 C24,5.373 18.627,0 11.999,0 Z" id="Shape"></path>
        </g>
    </g>
</svg>